# Blender 4.4.1
# www.blender.org
mtllib CIT-2.mtl
o Plane
v -55.336422 -0.353166 -3.619940
v -53.292290 5.609602 -5.103842
v -53.649765 -0.499997 -4.756702
v -55.438248 5.609602 -3.724655
v -55.708588 -0.353882 -3.254494
v -79.703735 -0.271574 20.283258
v -58.330841 -0.450664 17.051645
v -57.635910 -0.290286 21.695572
v -50.046780 -0.287483 20.778915
v -50.918259 -0.456032 16.398577
v -35.785408 -0.449955 14.907731
v -35.074982 -0.288522 20.948963
v -30.733591 -0.289773 20.324005
v -31.474857 -0.453668 14.582642
v -17.181919 -0.451790 13.457872
v -16.648760 -0.290985 21.259930
v -3.680961 -0.287742 21.225084
v -4.221303 -0.451951 10.364764
v 0.465282 -0.289362 10.303804
v 0.285119 -0.288933 -0.291928
v -7.727805 -0.451717 -0.099900
v -7.594422 -0.311093 -4.322963
v -27.777172 -0.291184 -20.220942
v -28.787128 -0.449916 -18.954834
v -29.781410 -0.452136 -19.822105
v -28.721184 -0.290796 -20.807796
v -31.134563 -0.288250 -23.266880
v -34.389648 -0.402981 -19.971636
v -38.961235 -0.291672 -20.049314
v -38.954716 -0.444371 -19.020809
v -40.128246 -0.296836 -19.157089
v -40.168915 -0.488085 -17.914753
v -55.810966 5.609602 -3.359667
v -79.775589 5.609602 20.318834
v -58.495628 5.609602 17.282253
v -57.691143 5.609602 21.770269
v -49.974064 5.609602 20.833479
v -50.684044 5.609602 16.577900
v -35.959724 5.609602 15.129352
v -35.129986 5.609602 21.022263
v -30.660578 5.609602 20.380848
v -31.252178 5.609602 14.768103
v -17.366558 5.609602 13.676013
v -16.711815 5.609602 21.328827
v -3.615314 5.609602 21.288239
v -4.011003 5.609602 10.558786
v 0.532428 5.609602 10.367043
v 0.349353 5.609602 -0.357699
v -7.528146 5.609602 -0.304167
v -7.497085 5.609602 -4.371046
v -27.783688 5.609602 -20.314253
v -28.799408 5.609602 -19.236446
v -29.495487 5.609602 -19.840607
v -28.627954 5.609602 -20.810240
v -31.134121 5.609602 -23.358330
v -34.467026 5.609602 -20.160410
v -39.023140 5.609602 -20.119904
v -39.135441 5.609602 -19.222473
v -40.187756 5.609602 -19.234512
v -40.368031 5.609602 -17.577671
v -55.089668 0.000000 -3.366196
v -53.650990 5.609602 -4.755512
v -53.650990 0.000000 -4.755512
v -55.089668 5.609602 -3.366196
v -55.462189 0.000000 -3.001402
v -79.327599 0.000000 20.096794
v -58.204929 0.000000 16.875441
v -57.393799 0.000000 21.368290
v -50.373936 0.000000 20.533306
v -51.081039 0.000000 16.273933
v -35.650612 0.000000 14.736353
v -34.829815 0.000000 20.622391
v -31.055054 0.000000 20.073620
v -31.636383 0.000000 14.448125
v -17.043526 0.000000 13.294373
v -16.374254 0.000000 20.959974
v -3.975694 0.000000 20.941647
v -4.378495 0.000000 10.219743
v 0.168469 0.000000 10.024212
v -0.000003 0.000000 0.000003
v -7.877635 0.000000 0.053405
v -7.945374 0.000000 -4.149603
v -27.748796 0.000000 -19.815472
v -28.777645 0.000000 -18.736921
v -29.994444 0.000000 -19.808336
v -29.127781 0.000000 -20.797054
v -31.136553 0.000000 -22.858337
v -34.277382 0.000000 -19.697771
v -38.693485 0.000000 -19.743967
v -38.801750 0.000000 -18.850117
v -39.883022 0.000000 -18.838104
v -40.113720 0.000000 -18.008167
v -55.462189 5.609602 -3.001402
v -79.327599 5.609602 20.096794
v -58.204929 5.609602 16.875441
v -57.393799 5.609602 21.368290
v -50.373936 5.609602 20.533306
v -51.081039 5.609602 16.273933
v -35.650612 5.609602 14.736353
v -34.829815 5.609602 20.622391
v -31.055054 5.609602 20.073620
v -31.636383 5.609602 14.448125
v -17.043526 5.609602 13.294373
v -16.374254 5.609602 20.959974
v -3.975694 5.609602 20.941647
v -4.378495 5.609602 10.219743
v 0.168469 5.609602 10.024212
v -0.000003 5.609602 0.000003
v -7.877635 5.609602 0.053405
v -7.945374 5.609602 -4.149603
v -27.748796 5.609602 -19.815472
v -28.777645 5.609602 -18.736921
v -29.994444 5.609602 -19.808336
v -29.127781 5.609602 -20.797054
v -31.136553 5.609602 -22.858337
v -34.277382 5.609602 -19.697771
v -38.693485 5.609602 -19.743967
v -38.801750 5.609602 -18.850117
v -39.883022 5.609602 -18.838104
v -40.113720 5.609602 -18.008167
vn 0.9990 -0.0319 0.0305
vn 0.1199 -0.0114 0.9927
vn 0.6187 -0.0166 -0.7855
vn 0.9808 -0.0103 -0.1947
vn -0.7810 -0.0107 -0.6244
vn 0.0980 -0.0332 0.9946
vn 0.6570 -0.0337 -0.7531
vn -0.9925 -0.0329 0.1176
vn 0.6830 -0.0300 0.7298
vn 0.1425 -0.0110 0.9897
vn 0.7137 -0.0116 -0.7004
vn 0.9917 -0.0110 -0.1277
vn -0.5597 -0.0143 -0.8286
vn -0.7112 -0.0108 -0.7029
vn 0.0784 -0.0334 0.9964
vn 0.0162 -0.0312 -0.9994
vn -0.9971 -0.0328 0.0688
vn -0.9999 -0.0104 0.0048
vn 0.0027 -0.0116 0.9999
vn 0.1116 -0.0298 -0.9933
vn 0.9987 -0.0106 -0.0495
vn -0.7004 -0.0245 -0.7133
vn -0.9994 -0.0105 -0.0343
vn 0.0141 -0.0325 0.9994
vn -0.7001 -0.0246 -0.7136
vn 0.6985 -0.0002 0.7156
vn 0.9998 -0.0112 -0.0170
vn 0.1495 -0.0042 0.9888
vn -0.0237 -0.0109 -0.9997
vn -0.9883 -0.0325 0.1490
vn 0.0011 -0.9996 0.0266
vn 0.9998 -0.0164 0.0076
vn 0.1205 -0.0107 0.9927
vn 0.6179 -0.0118 -0.7862
vn 0.9858 -0.0332 -0.1645
vn -0.7274 -0.0333 -0.6855
vn 0.0979 -0.0336 0.9946
vn 0.6551 -0.0332 -0.7548
vn -0.9902 -0.0110 0.1394
vn 0.7452 -0.0115 0.6667
vn 0.1420 -0.0113 0.9898
vn 0.7129 -0.0109 -0.7012
vn 0.9939 -0.0333 -0.1048
vn -0.5405 -0.0240 -0.8410
vn -0.6920 -0.0315 -0.7212
vn 0.0784 -0.0335 0.9964
vn -0.0089 -0.0121 -0.9999
vn -0.9963 -0.0116 0.0852
vn -0.9917 -0.0337 -0.1241
vn 0.0031 -0.0107 0.9999
vn 0.0114 -0.0130 -0.9999
vn 0.9988 -0.0335 -0.0368
vn -0.6995 -0.0246 -0.7143
vn -0.9938 -0.0265 -0.1081
vn 0.0422 -0.0112 0.9990
vn -0.7028 -0.0043 -0.7113
vn 0.6944 -0.0171 0.7194
vn 0.9998 -0.0111 -0.0171
vn 0.1412 -0.0338 0.9894
vn -0.0068 -0.0335 -0.9994
vn -0.9842 -0.0114 0.1764
vn -0.1055 -0.9823 -0.1547
vn -0.0216 -0.9889 -0.1467
vn -0.0092 -0.9990 -0.0439
vn 0.0786 -0.9938 -0.0782
vn 0.0011 -0.9993 -0.0383
vn -0.0026 -1.0000 -0.0046
vn -0.0785 -0.9968 0.0122
vn 0.0018 -1.0000 0.0009
vn -0.0006 -0.9991 -0.0430
vn -0.0112 -0.9998 0.0154
vn 0.0598 -0.9952 -0.0771
vn 0.0201 -0.9998 -0.0068
vn 0.0347 -0.9994 -0.0006
vn 0.0088 -1.0000 -0.0032
vn -0.0499 -0.9981 -0.0348
vn 0.0034 -1.0000 0.0002
vn -0.0008 -1.0000 0.0013
vn -0.0093 -0.9999 -0.0060
vn 0.0036 -0.9999 0.0149
vn 0.0003 -0.9998 0.0206
vn -0.0000 -1.0000 -0.0000
vn -0.0012 -1.0000 -0.0049
vn 0.0006 -1.0000 0.0020
vn 0.0049 -0.9993 0.0375
vn 0.0023 -0.9994 0.0342
vn 0.0001 -1.0000 -0.0001
vn 0.0037 -0.9996 0.0281
vn -0.9999 -0.0000 0.0161
vn -0.1181 -0.0000 -0.9930
vn -0.6204 -0.0000 0.7843
vn -0.9865 -0.0000 0.1638
vn 0.7236 -0.0000 0.6902
vn -0.0992 -0.0000 -0.9951
vn -0.6608 -0.0000 0.7505
vn 0.9904 -0.0000 -0.1381
vn -0.7520 -0.0000 -0.6592
vn -0.1439 -0.0000 -0.9896
vn -0.7162 -0.0000 0.6979
vn -0.9947 -0.0000 0.1028
vn 0.6947 -0.0000 0.7193
vn 0.7093 -0.0000 0.7049
vn -0.0788 -0.0000 -0.9969
vn -0.0105 -0.0000 0.9999
vn 0.9962 -0.0000 -0.0870
vn 0.9927 -0.0000 0.1202
vn -0.0015 -0.0000 -1.0000
vn 0.0111 -0.0000 0.9999
vn -0.9993 -0.0000 0.0375
vn 0.6997 -0.0000 0.7145
vn 0.9635 -0.0000 0.2678
vn -0.0430 -0.0000 -0.9991
vn 0.6955 -0.0000 0.7186
vn -0.6996 -0.0000 -0.7146
vn -0.9999 -0.0000 0.0168
vn -0.1508 -0.0000 -0.9886
vn 0.0068 -0.0000 1.0000
vn 0.9841 -0.0000 -0.1777
vn -0.0000 1.0000 -0.0000
vn 0.6996 -0.0000 0.7145
vt 0.000000 0.000000
s 0
f 22/1/1 49/1/1 21/1/1
f 9/1/2 36/1/2 8/1/2
f 23/1/3 50/1/3 22/1/3
f 10/1/4 37/1/4 9/1/4
f 24/1/5 51/1/5 23/1/5
f 11/1/6 38/1/6 10/1/6
f 25/1/7 52/1/7 24/1/7
f 12/1/8 39/1/8 11/1/8
f 26/1/9 53/1/9 25/1/9
f 13/1/10 40/1/10 12/1/10
f 27/1/11 54/1/11 26/1/11
f 14/1/12 41/1/12 13/1/12
f 1/1/13 2/1/13 3/1/13
f 28/1/14 55/1/14 27/1/14
f 15/1/15 42/1/15 14/1/15
f 29/1/16 56/1/16 28/1/16
f 16/1/17 43/1/17 15/1/17
f 30/1/18 57/1/18 29/1/18
f 17/1/19 44/1/19 16/1/19
f 31/1/20 58/1/20 30/1/20
f 18/1/21 45/1/21 17/1/21
f 5/1/22 4/1/22 1/1/22
f 32/1/23 59/1/23 31/1/23
f 19/1/24 46/1/24 18/1/24
f 6/1/25 33/1/25 5/1/25
f 32/1/26 2/1/26 3/1/26
f 20/1/27 47/1/27 19/1/27
f 7/1/28 34/1/28 6/1/28
f 21/1/29 48/1/29 20/1/29
f 8/1/30 35/1/30 7/1/30
f 14/1/31 12/1/31 11/1/31
f 22/1/32 50/1/32 49/1/32
f 9/1/33 37/1/33 36/1/33
f 23/1/34 51/1/34 50/1/34
f 10/1/35 38/1/35 37/1/35
f 24/1/36 52/1/36 51/1/36
f 11/1/37 39/1/37 38/1/37
f 25/1/38 53/1/38 52/1/38
f 12/1/39 40/1/39 39/1/39
f 26/1/40 54/1/40 53/1/40
f 13/1/41 41/1/41 40/1/41
f 27/1/42 55/1/42 54/1/42
f 14/1/43 42/1/43 41/1/43
f 1/1/44 4/1/44 2/1/44
f 28/1/45 56/1/45 55/1/45
f 15/1/46 43/1/46 42/1/46
f 29/1/47 57/1/47 56/1/47
f 16/1/48 44/1/48 43/1/48
f 30/1/49 58/1/49 57/1/49
f 17/1/50 45/1/50 44/1/50
f 31/1/51 59/1/51 58/1/51
f 18/1/52 46/1/52 45/1/52
f 5/1/53 33/1/53 4/1/53
f 32/1/54 60/1/54 59/1/54
f 19/1/55 47/1/55 46/1/55
f 6/1/56 34/1/56 33/1/56
f 32/1/57 60/1/57 2/1/57
f 20/1/58 48/1/58 47/1/58
f 7/1/59 35/1/59 34/1/59
f 21/1/60 49/1/60 48/1/60
f 8/1/61 36/1/61 35/1/61
f 32/1/62 31/1/62 30/1/62
f 30/1/63 29/1/63 28/1/63
f 28/1/64 27/1/64 25/1/64
f 27/1/65 26/1/65 25/1/65
f 32/1/66 30/1/66 28/1/66
f 5/1/67 1/1/67 10/1/67
f 1/1/68 3/1/68 10/1/68
f 3/1/69 32/1/69 11/1/69
f 32/1/70 28/1/70 24/1/70
f 28/1/71 25/1/71 24/1/71
f 24/1/72 23/1/72 22/1/72
f 21/1/73 20/1/73 18/1/73
f 20/1/74 19/1/74 18/1/74
f 24/1/75 22/1/75 15/1/75
f 22/1/76 21/1/76 15/1/76
f 32/1/77 24/1/77 14/1/77
f 11/1/78 32/1/78 14/1/78
f 7/1/79 6/1/79 5/1/79
f 18/1/80 17/1/80 15/1/80
f 17/1/81 16/1/81 15/1/81
f 21/1/82 18/1/82 15/1/82
f 7/1/83 5/1/83 10/1/83
f 3/1/84 11/1/84 10/1/84
f 9/1/85 8/1/85 10/1/85
f 8/1/86 7/1/86 10/1/86
f 14/1/87 24/1/87 15/1/87
f 14/1/88 13/1/88 12/1/88
f 82/1/89 81/1/89 109/1/89
f 69/1/90 68/1/90 96/1/90
f 83/1/91 82/1/91 110/1/91
f 70/1/92 69/1/92 97/1/92
f 84/1/93 83/1/93 111/1/93
f 71/1/94 70/1/94 98/1/94
f 85/1/95 84/1/95 112/1/95
f 72/1/96 71/1/96 99/1/96
f 86/1/97 85/1/97 113/1/97
f 73/1/98 72/1/98 100/1/98
f 87/1/99 86/1/99 114/1/99
f 74/1/100 73/1/100 101/1/100
f 61/1/101 63/1/101 62/1/101
f 88/1/102 87/1/102 115/1/102
f 75/1/103 74/1/103 102/1/103
f 89/1/104 88/1/104 116/1/104
f 76/1/105 75/1/105 103/1/105
f 90/1/106 89/1/106 117/1/106
f 77/1/107 76/1/107 104/1/107
f 91/1/108 90/1/108 118/1/108
f 78/1/109 77/1/109 105/1/109
f 65/1/110 61/1/110 64/1/110
f 92/1/111 91/1/111 119/1/111
f 79/1/112 78/1/112 106/1/112
f 66/1/113 65/1/113 93/1/113
f 92/1/114 63/1/114 62/1/114
f 80/1/115 79/1/115 107/1/115
f 67/1/116 66/1/116 94/1/116
f 81/1/117 80/1/117 108/1/117
f 68/1/118 67/1/118 95/1/118
f 74/1/119 71/1/119 72/1/119
f 82/1/89 109/1/89 110/1/89
f 69/1/90 96/1/90 97/1/90
f 83/1/91 110/1/91 111/1/91
f 70/1/92 97/1/92 98/1/92
f 84/1/93 111/1/93 112/1/93
f 71/1/94 98/1/94 99/1/94
f 85/1/95 112/1/95 113/1/95
f 72/1/96 99/1/96 100/1/96
f 86/1/97 113/1/97 114/1/97
f 73/1/98 100/1/98 101/1/98
f 87/1/99 114/1/99 115/1/99
f 74/1/100 101/1/100 102/1/100
f 61/1/101 62/1/101 64/1/101
f 88/1/102 115/1/102 116/1/102
f 75/1/103 102/1/103 103/1/103
f 89/1/104 116/1/104 117/1/104
f 76/1/105 103/1/105 104/1/105
f 90/1/106 117/1/106 118/1/106
f 77/1/107 104/1/107 105/1/107
f 91/1/108 118/1/108 119/1/108
f 78/1/109 105/1/109 106/1/109
f 65/1/120 64/1/120 93/1/120
f 92/1/111 119/1/111 120/1/111
f 79/1/112 106/1/112 107/1/112
f 66/1/113 93/1/113 94/1/113
f 92/1/114 62/1/114 120/1/114
f 80/1/115 107/1/115 108/1/115
f 67/1/116 94/1/116 95/1/116
f 81/1/117 108/1/117 109/1/117
f 68/1/118 95/1/118 96/1/118
f 92/1/119 90/1/119 91/1/119
f 90/1/119 88/1/119 89/1/119
f 88/1/119 85/1/119 87/1/119
f 87/1/119 85/1/119 86/1/119
f 92/1/119 88/1/119 90/1/119
f 65/1/119 70/1/119 61/1/119
f 61/1/119 70/1/119 63/1/119
f 63/1/119 71/1/119 92/1/119
f 92/1/119 84/1/119 88/1/119
f 88/1/119 84/1/119 85/1/119
f 84/1/119 82/1/119 83/1/119
f 81/1/119 78/1/119 80/1/119
f 80/1/119 78/1/119 79/1/119
f 84/1/119 75/1/119 82/1/119
f 82/1/119 75/1/119 81/1/119
f 92/1/119 74/1/119 84/1/119
f 71/1/119 74/1/119 92/1/119
f 67/1/119 65/1/119 66/1/119
f 78/1/119 75/1/119 77/1/119
f 77/1/119 75/1/119 76/1/119
f 81/1/119 75/1/119 78/1/119
f 67/1/119 70/1/119 65/1/119
f 63/1/119 70/1/119 71/1/119
f 69/1/119 70/1/119 68/1/119
f 68/1/119 70/1/119 67/1/119
f 74/1/119 75/1/119 84/1/119
f 74/1/119 72/1/119 73/1/119
f 33/1/119 34/1/119 94/1/119 93/1/119
f 4/1/119 33/1/119 93/1/119 64/1/119
f 2/1/119 4/1/119 64/1/119 62/1/119
f 34/1/119 35/1/119 95/1/119 94/1/119
f 35/1/119 36/1/119 96/1/119 95/1/119
f 36/1/119 37/1/119 97/1/119 96/1/119
f 37/1/119 38/1/119 98/1/119 97/1/119
f 38/1/119 39/1/119 99/1/119 98/1/119
f 39/1/119 40/1/119 100/1/119 99/1/119
f 40/1/119 41/1/119 101/1/119 100/1/119
f 41/1/119 42/1/119 102/1/119 101/1/119
f 42/1/119 43/1/119 103/1/119 102/1/119
f 43/1/119 44/1/119 104/1/119 103/1/119
f 44/1/119 45/1/119 105/1/119 104/1/119
f 45/1/119 46/1/119 106/1/119 105/1/119
f 46/1/119 47/1/119 107/1/119 106/1/119
f 47/1/119 48/1/119 108/1/119 107/1/119
f 48/1/119 49/1/119 109/1/119 108/1/119
f 49/1/119 50/1/119 110/1/119 109/1/119
f 50/1/119 51/1/119 111/1/119 110/1/119
f 51/1/119 52/1/119 112/1/119 111/1/119
f 52/1/119 53/1/119 113/1/119 112/1/119
f 53/1/119 54/1/119 114/1/119 113/1/119
f 54/1/119 55/1/119 115/1/119 114/1/119
f 55/1/119 56/1/119 116/1/119 115/1/119
f 56/1/119 57/1/119 117/1/119 116/1/119
f 57/1/119 58/1/119 118/1/119 117/1/119
f 58/1/119 59/1/119 119/1/119 118/1/119
f 59/1/119 60/1/119 120/1/119 119/1/119
f 2/1/119 60/1/119 120/1/119 62/1/119
